<svg width="1158" height="2243" viewBox="0 0 1158 2243" fill="none" xmlns="http://www.w3.org/2000/svg">
<mask id="mask0" mask-type="alpha" maskUnits="userSpaceOnUse" x="36" y="62" width="2129" height="2119">
<path d="M340.198 841.798C340.198 841.798 373.161 875.253 411.961 867.706C450.851 860.091 465.401 810.317 492.848 803.126C492.848 803.126 418.02 759.691 377.474 791.157C344.071 817.25 340.198 841.798 340.198 841.798Z" fill="#70E0A3"/>
<path d="M479.133 946.994C479.133 946.994 526.322 935.911 538.384 900.212C550.536 864.445 511.654 828.507 518.506 802.413C518.506 802.413 441.467 843.295 450.671 891.846C458.296 932.017 479.133 946.994 479.133 946.994Z" fill="#70E0A3"/>
<path d="M432.457 750.358C432.457 750.358 461.603 786.823 501.008 782.982C540.413 779.141 560.259 730.93 588.353 726.443C588.353 726.443 518.573 676.021 474.996 703.525C438.809 726.304 432.457 750.358 432.457 750.358Z" fill="#70E0A3"/>
<path d="M559.306 868.389C559.306 868.389 607.328 861.811 623.249 827.37C639.17 792.929 604.342 753.388 613.977 727.973C613.977 727.973 532.961 761.308 536.997 810.556C540.263 851.508 559.306 868.389 559.306 868.389Z" fill="#70E0A3"/>
<path d="M532.416 669.493C532.416 669.493 558.617 707.896 598.254 706.792C637.892 705.687 661.469 659.109 689.82 656.508C689.82 656.508 624.247 601.259 578.605 625.601C540.671 645.949 532.416 669.493 532.416 669.493Z" fill="#70E0A3"/>
<path d="M649.6 796.04C649.6 796.04 698.013 792.913 716.57 759.68C735.127 726.446 703.463 684.524 715.125 659.943C715.125 659.943 631.792 687.532 631.869 736.984C631.861 777.902 649.6 796.04 649.6 796.04Z" fill="#70E0A3"/>
<path d="M639.997 594.544C639.997 594.544 661.973 635.292 701.459 638.047C740.944 640.802 769.399 596.518 797.892 596.723C797.892 596.723 738.638 535.472 690.598 555.378C650.836 571.969 639.997 594.544 639.997 594.544Z" fill="#70E0A3"/>
<path d="M742.898 731.835C742.898 731.835 791.386 733.365 813.312 702.036C835.239 670.706 808.433 625.962 822.57 602.571C822.57 602.571 736.718 622.068 731.581 671.282C727.328 712.064 742.898 731.835 742.898 731.835Z" fill="#70E0A3"/>
<path d="M756.354 533.382C756.354 533.382 773.999 576 812.957 582.341C851.986 588.768 884.847 547.273 913.088 550.163C913.088 550.163 860.472 483.643 810.699 499.026C769.363 511.809 756.354 533.382 756.354 533.382Z" fill="#70E0A3"/>
<path d="M844.461 679.58C844.461 679.58 892.559 685.564 917.654 656.428C942.75 627.291 920.655 580.252 937.157 558.272C937.157 558.272 849.849 569.711 839.553 618.228C830.932 658.551 844.461 679.58 844.461 679.58Z" fill="#70E0A3"/>
<path d="M877.388 480.073C877.388 480.073 890.347 524.136 928.343 534.252C966.43 544.299 1003.53 506.272 1031.36 511.831C1031.36 511.831 986.204 440.67 934.989 451.175C892.691 459.827 877.388 480.073 877.388 480.073Z" fill="#70E0A3"/>
<path d="M949.359 634.108C949.359 634.108 996.564 644.648 1024.54 618.062C1052.6 591.407 1035.67 542.431 1054.49 522.167C1054.49 522.167 966.506 525.243 951.037 572.518C938.124 611.77 949.359 634.108 949.359 634.108Z" fill="#70E0A3"/>
<path d="M1001.54 439.259C1001.54 439.259 1010.95 484.19 1048.14 496.855C1085.4 509.605 1125.28 474.196 1152.63 481.642C1152.63 481.642 1113.18 407.438 1061.34 414.39C1018.35 420.101 1001.54 439.259 1001.54 439.259Z" fill="#70E0A3"/>
<path d="M1061.14 597.884C1061.14 597.884 1107.28 611.722 1137.38 587.141C1167.48 562.561 1154.36 512.513 1174.75 493.576C1174.75 493.576 1086.71 490.447 1067.62 536.566C1051.71 574.883 1061.14 597.884 1061.14 597.884Z" fill="#70E0A3"/>
<path d="M1130.4 406.691C1130.4 406.691 1134.97 452.352 1170.57 468.57C1206.16 484.788 1249.73 453.408 1276.02 463.455C1276.02 463.455 1244.78 385.851 1192.5 387.72C1149.21 389.215 1130.4 406.691 1130.4 406.691Z" fill="#70E0A3"/>
<path d="M1172.73 570.397C1172.73 570.397 1217.19 588.554 1249.7 567.016C1282.21 545.478 1274.64 494.309 1296.9 477.429C1296.9 477.429 1209.75 465.868 1185.74 509.998C1165.86 546.581 1172.73 570.397 1172.73 570.397Z" fill="#70E0A3"/>
<path d="M226.833 672.021C226.833 672.021 260.086 705.119 298.924 697.266C337.762 689.413 351.846 639.435 379.24 632.006C379.24 632.006 303.922 589.217 263.733 621.107C230.382 647.439 226.833 672.021 226.833 672.021Z" fill="#70E0A3"/>
<path d="M366.748 775.925C366.748 775.925 413.742 764.434 425.499 728.548C437.257 692.662 398.013 656.996 404.702 630.885C404.702 630.885 328.073 672.43 337.853 720.964C345.801 761.169 366.748 775.925 366.748 775.925Z" fill="#70E0A3"/>
<path d="M318.126 579.782C318.126 579.782 347.634 615.975 387.077 611.828C426.519 607.681 445.899 559.266 473.941 554.541C473.941 554.541 403.671 504.765 360.289 532.677C324.245 555.626 318.126 579.782 318.126 579.782Z" fill="#70E0A3"/>
<path d="M446.188 696.623C446.188 696.623 494.177 689.654 509.703 655.094C525.229 620.534 490.039 581.265 499.422 555.901C499.422 555.901 418.815 589.899 423.265 639.113C426.873 679.946 446.188 696.623 446.188 696.623Z" fill="#70E0A3"/>
<path d="M417.299 497.982C417.299 497.982 443.862 536.113 483.447 534.771C523.123 533.36 546.163 486.493 574.461 483.654C574.461 483.654 508.398 429.05 462.951 453.801C425.321 474.336 417.299 497.982 417.299 497.982Z" fill="#70E0A3"/>
<path d="M535.679 623.492C535.679 623.492 583.986 619.889 602.239 586.468C620.401 553.116 588.375 511.466 599.805 486.783C599.805 486.783 516.789 515.103 517.281 564.52C517.829 605.575 535.679 623.492 535.679 623.492Z" fill="#70E0A3"/>
<path d="M524.167 422.183C524.167 422.183 546.576 462.744 586.028 465.108C625.552 467.557 653.54 423.069 682.072 422.968C682.072 422.968 622.256 362.278 574.411 382.592C534.702 399.421 524.167 422.183 524.167 422.183Z" fill="#70E0A3"/>
<path d="M628.424 558.454C628.424 558.454 676.969 559.526 698.591 528.009C720.212 496.492 692.884 452.003 706.878 428.442C706.878 428.442 621.255 448.738 616.531 497.918C612.582 538.887 628.424 558.454 628.424 558.454Z" fill="#70E0A3"/>
<path d="M639.758 359.932C639.758 359.932 657.837 402.364 696.832 408.399C735.918 414.367 768.384 372.753 796.663 375.337C796.663 375.337 743.324 309.361 693.746 325.152C652.624 338.19 639.758 359.932 639.758 359.932Z" fill="#70E0A3"/>
<path d="M729.435 505.366C729.435 505.366 777.59 510.892 802.381 481.568C827.172 452.244 804.572 405.308 820.841 383.225C820.841 383.225 733.6 395.446 723.861 444.099C715.654 484.388 729.435 505.366 729.435 505.366Z" fill="#70E0A3"/>
<path d="M760.278 305.485C760.278 305.485 773.651 349.514 811.866 359.188C850.081 368.861 886.806 330.562 914.672 335.815C914.672 335.815 868.813 265.045 817.703 276.026C775.419 285.222 760.278 305.485 760.278 305.485Z" fill="#70E0A3"/>
<path d="M833.801 458.908C833.801 458.908 881.062 468.989 908.822 442.148C936.582 415.306 919.212 366.517 937.736 346.066C937.736 346.066 849.653 349.907 834.741 397.318C822.475 436.638 833.801 458.908 833.801 458.908Z" fill="#70E0A3"/>
<path d="M884.078 263.549C884.078 263.549 893.991 308.377 931.217 320.737C968.514 333.181 1008.21 297.364 1035.5 304.572C1035.5 304.572 995.348 230.759 943.543 238.102C900.651 244.289 884.078 263.549 884.078 263.549Z" fill="#70E0A3"/>
<path d="M945.209 421.715C945.209 421.715 991.566 435.111 1021.29 410.258C1051.02 385.406 1037.56 335.478 1057.71 316.438C1057.71 316.438 969.65 314.159 951.041 360.329C935.687 398.782 945.209 421.715 945.209 421.715Z" fill="#70E0A3"/>
<path d="M1012.68 229.791C1012.68 229.791 1017.75 275.35 1053.38 291.262C1089.02 307.174 1132.39 275.386 1158.79 285.212C1158.79 285.212 1126.7 207.829 1074.44 210.242C1031.24 212.366 1012.68 229.791 1012.68 229.791Z" fill="#70E0A3"/>
<path d="M1056.61 393.123C1056.61 393.123 1101.2 410.906 1133.51 388.96C1165.89 367.099 1157.73 316.1 1179.78 298.965C1179.78 298.965 1092.44 288.237 1068.99 332.503C1049.49 369.358 1056.61 393.123 1056.61 393.123Z" fill="#70E0A3"/>
<path d="M555.203 1183.37C555.203 1183.37 587.152 1217.73 626.252 1211.07C665.262 1204.47 681.32 1155.09 709.086 1148.63C709.086 1148.63 635.567 1103.24 594.164 1133.69C559.704 1159.05 555.203 1183.37 555.203 1183.37Z" fill="#70E0A3"/>
<path d="M690.984 1292.19C690.984 1292.19 738.435 1282.3 751.61 1246.87C764.785 1211.44 726.935 1174.45 734.596 1148.44C734.596 1148.44 656.42 1187.27 664.273 1236.14C670.617 1276.72 690.984 1292.19 690.984 1292.19Z" fill="#70E0A3"/>
<path d="M650.108 1094.38C650.108 1094.38 678.26 1131.6 717.784 1128.77C757.307 1125.95 778.552 1078.36 806.732 1074.5C806.732 1074.5 738.494 1022.22 694.08 1048.55C657.179 1070.48 650.108 1094.38 650.108 1094.38Z" fill="#70E0A3"/>
<path d="M773.355 1215.68C773.355 1215.68 821.548 1210.36 838.473 1176.41C855.327 1142.38 821.674 1101.95 832.17 1076.86C832.17 1076.86 750.269 1108.09 752.811 1157.49C754.854 1198.39 773.355 1215.68 773.355 1215.68Z" fill="#70E0A3"/>
<path d="M752.279 1016.15C752.279 1016.15 777.324 1055.29 816.991 1055.27C856.657 1055.25 881.562 1009.2 909.979 1007.38C909.979 1007.38 846.09 950.451 799.772 973.638C761.325 992.847 752.279 1016.15 752.279 1016.15Z" fill="#70E0A3"/>
<path d="M865.72 1145.79C865.72 1145.79 914.141 1143.91 933.703 1111.17C953.264 1078.43 922.846 1035.71 935.208 1011.43C935.208 1011.43 851.08 1036.84 849.772 1086.23C848.612 1127.18 865.72 1145.79 865.72 1145.79Z" fill="#70E0A3"/>
<path d="M862.126 944.077C862.126 944.077 882.803 985.386 922.246 989.144C961.689 992.901 991.433 949.451 1019.76 950.336C1019.76 950.336 962.333 887.572 913.797 906.186C873.432 921.705 862.126 944.077 862.126 944.077Z" fill="#70E0A3"/>
<path d="M960.925 1084.04C960.925 1084.04 1009.26 1086.79 1032.17 1056.11C1055.08 1025.42 1029.43 979.949 1044.34 956.949C1044.34 956.949 958.038 974.151 951.354 1023.28C945.897 1063.86 960.925 1084.04 960.925 1084.04Z" fill="#70E0A3"/>
<path d="M980.082 885.872C980.082 885.872 996.447 928.899 1035.27 936.311C1074.1 943.724 1108.16 903.129 1136.3 906.785C1136.3 906.785 1085.66 838.921 1035.39 853.013C993.7 864.674 980.082 885.872 980.082 885.872Z" fill="#70E0A3"/>
<path d="M1063.87 1034.48C1063.87 1034.48 1111.66 1041.68 1137.65 1013.25C1163.57 984.745 1142.77 937.146 1159.95 915.625C1159.95 915.625 1072.35 924.786 1060.62 972.997C1050.98 1012.98 1063.87 1034.48 1063.87 1034.48Z" fill="#70E0A3"/>
<path d="M1102.61 835.743C1102.61 835.743 1114.21 880.129 1152 891.23C1189.8 902.332 1227.93 865.188 1255.6 871.428C1255.6 871.428 1212.55 799.094 1161.1 808.255C1118.43 815.938 1102.61 835.743 1102.61 835.743Z" fill="#70E0A3"/>
<path d="M1170.01 991.545C1170.01 991.545 1216.81 1003.36 1245.61 977.403C1274.41 951.445 1258.98 902.163 1278.33 882.342C1278.33 882.342 1190.21 883.156 1173.4 930.058C1159.46 968.97 1170.01 991.545 1170.01 991.545Z" fill="#70E0A3"/>
<path d="M446.787 1010.71C446.787 1010.71 479.026 1044.71 518.074 1037.81C557.122 1030.91 572.552 981.301 600.265 974.603C600.265 974.603 526.256 929.859 485.21 960.73C451.055 986.279 446.787 1010.71 446.787 1010.71Z" fill="#70E0A3"/>
<path d="M583.619 1118.32C583.619 1118.32 630.965 1107.95 643.726 1072.56C656.507 1037.01 618.367 1000.37 625.704 974.332C625.704 974.332 547.918 1013.97 556.204 1062.66C563.233 1103 583.619 1118.32 583.619 1118.32Z" fill="#70E0A3"/>
<path d="M540.726 920.917C540.726 920.917 569.239 957.858 608.639 954.714C648.039 951.57 668.908 903.699 697.107 899.688C697.107 899.688 628.379 848.059 584.16 874.798C547.634 896.999 540.726 920.917 540.726 920.917Z" fill="#70E0A3"/>
<path d="M665.348 1041.04C665.348 1041.04 713.508 1035.33 730.057 1001.11C746.516 966.956 712.501 926.802 722.674 901.677C722.674 901.677 641.091 933.635 644.138 982.934C646.504 1023.87 665.348 1041.04 665.348 1041.04Z" fill="#70E0A3"/>
<path d="M642.202 841.684C642.202 841.684 667.609 880.546 707.242 880.139C746.875 879.731 771.313 833.476 799.678 831.419C799.678 831.419 735.138 775.116 689.105 798.642C650.924 818.344 642.202 841.684 642.202 841.684Z" fill="#70E0A3"/>
<path d="M756.908 970.373C756.908 970.373 805.387 968.028 824.553 935.168C843.719 902.308 812.941 859.86 824.998 835.398C824.998 835.398 741.188 861.541 740.366 910.976C739.62 951.894 756.908 970.373 756.908 970.373Z" fill="#70E0A3"/>
<path d="M751.264 768.673C751.264 768.673 772.373 809.795 811.854 813.247C851.335 816.699 880.542 772.959 908.978 773.623C908.978 773.623 850.918 711.335 802.487 730.425C762.498 746.217 751.264 768.673 751.264 768.673Z" fill="#70E0A3"/>
<path d="M851.49 907.697C851.49 907.697 899.884 909.993 922.49 879.122C945.025 848.167 919.014 802.964 933.689 779.862C933.689 779.862 847.523 797.931 841.415 847.043C836.282 887.655 851.49 907.697 851.49 907.697Z" fill="#70E0A3"/>
<path d="M868.687 709.482C868.687 709.482 885.395 752.39 924.347 759.428C963.21 766.535 996.894 725.669 1025.1 728.865C1025.1 728.865 973.818 661.478 923.655 676.045C882.071 688.182 868.687 709.482 868.687 709.482Z" fill="#70E0A3"/>
<path d="M953.976 857.245C953.976 857.245 1001.89 864.062 1027.59 835.299C1053.3 806.537 1031.98 759.192 1048.95 737.416C1048.95 737.416 961.415 747.359 950.239 795.706C940.899 835.876 953.976 857.245 953.976 857.245Z" fill="#70E0A3"/>
<path d="M990.696 658.214C990.696 658.214 1002.81 702.498 1040.64 713.294C1078.56 724.021 1116.32 686.606 1144.02 692.539C1144.02 692.539 1100.2 620.511 1048.92 630.234C1006.38 638.24 990.696 658.214 990.696 658.214Z" fill="#70E0A3"/>
<path d="M1059.66 813.405C1059.66 813.405 1106.6 824.693 1135.17 798.633C1163.73 772.574 1147.73 723.308 1166.94 703.317C1166.94 703.317 1078.89 704.914 1062.47 751.934C1048.92 790.965 1059.66 813.405 1059.66 813.405Z" fill="#70E0A3"/>
<path d="M1115.57 619.491C1115.57 619.491 1124.06 664.557 1161.08 677.903C1198.01 691.316 1238.64 656.604 1265.76 664.492C1265.76 664.492 1227.79 589.591 1175.82 595.676C1132.83 600.69 1115.57 619.491 1115.57 619.491Z" fill="#70E0A3"/>
<path d="M1172.09 779.186C1172.09 779.186 1217.97 793.773 1248.5 769.702C1279.03 745.631 1266.92 695.38 1287.59 676.783C1287.59 676.783 1199.65 672.191 1179.7 717.988C1163.25 756.016 1172.09 779.186 1172.09 779.186Z" fill="#70E0A3"/>
<path d="M769.947 1526.4C769.947 1526.4 800.992 1561.43 840.211 1555.79C879.43 1550.15 896.764 1501.05 924.524 1495.29C924.524 1495.29 852.204 1448.17 810.016 1477.68C775.185 1502.07 769.947 1526.4 769.947 1526.4Z" fill="#70E0A3"/>
<path d="M902.882 1638.32C902.882 1638.32 950.523 1629.54 964.559 1594.43C978.596 1559.33 941.76 1521.44 950.12 1495.73C950.12 1495.73 871.021 1532.76 877.541 1581.8C882.986 1622.36 902.882 1638.32 902.882 1638.32Z" fill="#70E0A3"/>
<path d="M867.121 1439.58C867.121 1439.58 894.207 1477.46 933.779 1475.57C973.35 1473.68 995.851 1426.53 1024.19 1423.38C1024.19 1423.38 957.292 1369.54 912.183 1394.87C874.891 1415.99 867.121 1439.58 867.121 1439.58Z" fill="#70E0A3"/>
<path d="M987.218 1563.8C987.218 1563.8 1035.51 1559.65 1053.3 1526.03C1071.08 1492.4 1038.52 1451.16 1049.55 1426.36C1049.55 1426.36 966.906 1455.65 968.135 1505.07C969.188 1546.02 987.218 1563.8 987.218 1563.8Z" fill="#70E0A3"/>
<path d="M971.453 1363.75C971.453 1363.75 995.451 1403.39 1035.16 1404.31C1074.72 1405.21 1100.86 1359.76 1129.36 1358.57C1129.36 1358.57 1066.96 1300.24 1020.05 1322.2C980.965 1340.65 971.453 1363.75 971.453 1363.75Z" fill="#70E0A3"/>
<path d="M1081.37 1496.04C1081.37 1496.04 1129.82 1495.24 1150.22 1462.98C1170.62 1430.71 1141.36 1387.26 1154.26 1363.28C1154.26 1363.28 1069.55 1386.77 1066.86 1436.08C1064.71 1477.09 1081.37 1496.04 1081.37 1496.04Z" fill="#70E0A3"/>
<path d="M1083.03 1294.26C1083.03 1294.26 1102.66 1336.07 1141.99 1340.75C1181.31 1345.43 1212.11 1302.71 1240.53 1304.22C1240.53 1304.22 1184.75 1240.08 1135.77 1257.64C1095.03 1272.19 1083.03 1294.26 1083.03 1294.26Z" fill="#70E0A3"/>
<path d="M1178.1 1436.46C1178.1 1436.46 1226.38 1440.37 1250.13 1410.16C1273.89 1379.95 1249.45 1333.99 1264.89 1311.28C1264.89 1311.28 1178.17 1326.57 1170.21 1375.41C1163.6 1416.03 1178.1 1436.46 1178.1 1436.46Z" fill="#70E0A3"/>
<path d="M666.189 1351.2C666.189 1351.2 697.596 1385.96 736.781 1379.93C775.967 1373.89 792.815 1324.75 820.614 1318.68C820.614 1318.68 747.804 1272.2 705.902 1302.05C671.104 1326.84 666.189 1351.2 666.189 1351.2Z" fill="#70E0A3"/>
<path d="M800.175 1461.92C800.175 1461.92 847.783 1452.74 861.425 1417.52C875.066 1382.29 837.94 1344.76 845.995 1318.87C845.995 1318.87 767.215 1356.62 774.24 1405.56C780.08 1446.24 800.175 1461.92 800.175 1461.92Z" fill="#70E0A3"/>
<path d="M762.397 1263.58C762.397 1263.58 789.845 1301.19 829.455 1298.99C869.064 1296.8 891.027 1249.36 919.312 1245.97C919.312 1245.97 851.926 1192.78 807.102 1218.45C769.863 1239.8 762.397 1263.58 762.397 1263.58Z" fill="#70E0A3"/>
<path d="M883.779 1386.7C883.779 1386.7 932.13 1382.09 949.521 1348.35C966.912 1314.6 933.983 1273.63 944.784 1248.73C944.784 1248.73 862.459 1278.75 864.102 1328.13C865.497 1368.96 883.779 1386.7 883.779 1386.7Z" fill="#70E0A3"/>
<path d="M865.944 1186.81C865.944 1186.81 890.375 1226.27 930.056 1226.8C969.736 1227.33 995.34 1181.58 1023.77 1180.31C1023.77 1180.31 960.735 1122.46 914.008 1144.98C875.222 1163.61 865.944 1186.81 865.944 1186.81Z" fill="#70E0A3"/>
<path d="M977.214 1318.09C977.214 1318.09 1025.72 1316.83 1045.73 1284.45C1065.74 1252.06 1036.04 1208.8 1048.8 1184.64C1048.8 1184.64 964.34 1208.78 962.205 1258.23C960.378 1299.27 977.214 1318.09 977.214 1318.09Z" fill="#70E0A3"/>
<path d="M976.823 1116.32C976.823 1116.32 996.886 1157.95 1036.18 1162.24C1075.55 1166.61 1105.9 1123.53 1134.33 1124.89C1134.33 1124.89 1077.83 1061.29 1029.05 1079.26C988.595 1094.15 976.823 1116.32 976.823 1116.32Z" fill="#70E0A3"/>
<path d="M1073.4 1257.67C1073.4 1257.67 1121.73 1261.12 1145.18 1230.73C1168.54 1200.4 1143.76 1154.55 1158.97 1131.74C1158.97 1131.74 1072.4 1147.75 1065 1196.73C1058.64 1237.29 1073.4 1257.67 1073.4 1257.67Z" fill="#70E0A3"/>
<path d="M1095.7 1059.92C1095.7 1059.92 1111.38 1103.18 1150.06 1111.12C1188.74 1119.06 1223.39 1078.99 1251.57 1083.04C1251.57 1083.04 1201.99 1014.51 1151.56 1027.89C1109.72 1038.84 1095.7 1059.92 1095.7 1059.92Z" fill="#70E0A3"/>
<path d="M1177.15 1209.6C1177.15 1209.6 1224.93 1217.49 1251.2 1189.41C1277.57 1161.25 1257.62 1113.43 1275.11 1092.1C1275.11 1092.1 1187.34 1100 1174.89 1148.06C1164.52 1187.89 1177.15 1209.6 1177.15 1209.6Z" fill="#70E0A3"/>
<path d="M965.795 1878.36C965.795 1878.36 995.755 1914.21 1035.18 1909.52C1074.61 1904.83 1093.27 1856.26 1121.19 1851.21C1121.19 1851.21 1050.25 1802.22 1007.3 1830.64C971.59 1854.17 965.795 1878.36 965.795 1878.36Z" fill="#70E0A3"/>
<path d="M1095.27 1993.72C1095.27 1993.72 1143.17 1986.12 1158.21 1951.51C1173.25 1916.9 1137.61 1877.97 1146.69 1852.42C1146.69 1852.42 1066.46 1887.39 1071.57 1936.52C1075.85 1977.27 1095.27 1993.72 1095.27 1993.72Z" fill="#70E0A3"/>
<path d="M1065.36 1794.04C1065.36 1794.04 1091.38 1832.58 1130.98 1831.78C1170.67 1830.92 1194.41 1784.36 1222.82 1781.99C1222.82 1781.99 1157.6 1726.47 1111.75 1750.56C1073.85 1770.6 1065.36 1794.04 1065.36 1794.04Z" fill="#70E0A3"/>
<path d="M1181.81 1921.29C1181.81 1921.29 1230.27 1918.4 1248.9 1885.25C1267.6 1852.19 1236.3 1809.99 1248.03 1785.5C1248.03 1785.5 1164.59 1812.61 1164.35 1862.03C1164.16 1903.08 1181.81 1921.29 1181.81 1921.29Z" fill="#70E0A3"/>
<path d="M1171.82 1720.91C1171.82 1720.91 1194.68 1761.13 1234.26 1763.12C1273.84 1765.11 1301.22 1720.25 1329.7 1719.91C1329.7 1719.91 1268.98 1659.9 1221.47 1680.8C1182.03 1698.12 1171.82 1720.91 1171.82 1720.91Z" fill="#70E0A3"/>
<path d="M867.038 1700.51C867.038 1700.51 897.36 1736.09 936.665 1731.07C975.969 1726.06 994.236 1677.37 1022.19 1672.02C1022.19 1672.02 950.761 1623.67 908.093 1652.43C872.671 1676.3 867.038 1700.51 867.038 1700.51Z" fill="#70E0A3"/>
<path d="M997.727 1814.68C997.727 1814.68 1045.51 1806.76 1060.26 1771.81C1075.02 1736.86 1038.9 1698.42 1047.66 1672.84C1047.66 1672.84 967.903 1708.55 973.434 1757.65C978.122 1798.36 997.727 1814.68 997.727 1814.68Z" fill="#70E0A3"/>
<path d="M965.802 1615.41C965.802 1615.41 992.184 1653.68 1031.75 1652.49C1071.32 1651.3 1094.75 1604.55 1123.03 1601.86C1123.03 1601.86 1057.26 1546.9 1011.67 1571.48C973.986 1591.78 965.802 1615.41 965.802 1615.41Z" fill="#70E0A3"/>
<path d="M1083.53 1741.55C1083.53 1741.55 1131.89 1738.18 1150.28 1704.93C1168.68 1671.68 1136.93 1629.83 1148.43 1605.23C1148.43 1605.23 1065.22 1633.14 1065.55 1682.54C1065.79 1723.41 1083.53 1741.55 1083.53 1741.55Z" fill="#70E0A3"/>
<path d="M1071.56 1541.28C1071.56 1541.28 1094.86 1581.31 1134.4 1582.91C1173.95 1584.51 1201.02 1539.46 1229.38 1538.8C1229.38 1538.8 1168.1 1479.35 1120.79 1500.65C1081.47 1518.29 1071.56 1541.28 1071.56 1541.28Z" fill="#70E0A3"/>
<path d="M1178.87 1675.39C1178.87 1675.39 1227.3 1675.44 1248.31 1643.55C1269.32 1611.66 1240.86 1567.75 1254.31 1543.9C1254.31 1543.9 1169.22 1565.88 1165.63 1615.18C1162.67 1656.09 1178.87 1675.39 1178.87 1675.39Z" fill="#70E0A3"/>
</mask>
<g mask="url(#mask0)">
<rect width="1891.07" height="2102.74" transform="matrix(0.663134 0.748501 0.783567 -0.621307 -132.192 859.125)" fill="url(#paint0_linear)" fill-opacity="0.4"/>
</g>
<defs>
<linearGradient id="paint0_linear" x1="1961.67" y1="258.228" x2="-744.3" y2="1054.56" gradientUnits="userSpaceOnUse">
<stop stop-color="#70E0A3" stop-opacity="0"/>
<stop offset="0.4375" stop-color="#70E0A3" stop-opacity="0.79"/>
<stop offset="0.677083" stop-color="#70E0A3" stop-opacity="0"/>
</linearGradient>
</defs>
</svg>
