<svg viewBox="0 400 1440 1559" fill="none" xmlns="http://www.w3.org/2000/svg">
<mask id="mask0" mask-type="alpha" maskUnits="userSpaceOnUse" x="-305" y="203" width="2126" height="1953">
<path d="M336.645 487.667C336.645 487.667 375.853 513.523 375.967 553.05C376.031 592.68 330.019 616.598 328.283 644.917C328.283 644.917 271.172 579.923 294.186 534.049C313.313 496.223 336.645 487.667 336.645 487.667Z" fill="#70E0A3"/>
<path d="M466.766 603.588C466.766 603.588 465.037 652.03 432.351 670.78C399.616 689.632 356.826 658.45 332.554 670.227C332.554 670.227 357.735 586.728 407.15 586.35C448.036 586.047 466.766 603.588 466.766 603.588Z" fill="#70E0A3"/>
<path d="M264.814 595.895C264.814 595.895 306.235 617.424 310.101 656.826C313.967 696.228 270.516 725.039 271.556 753.47C271.556 753.47 208.57 694.783 227.11 646.702C242.446 606.787 264.814 595.895 264.814 595.895Z" fill="#70E0A3"/>
<path d="M405.185 697.472C405.185 697.472 408.036 745.858 377.332 768.15C346.629 790.442 301.089 763.936 278.023 778.312C278.023 778.312 295.029 692.372 344.125 686.79C384.934 682.059 405.185 697.472 405.185 697.472Z" fill="#70E0A3"/>
<path d="M204.848 709.627C204.848 709.627 247.599 727.891 254.196 766.992C260.793 806.092 219.665 838.247 222.607 866.564C222.607 866.564 155.699 812.939 170.737 763.445C183.349 722.288 204.848 709.627 204.848 709.627Z" fill="#70E0A3"/>
<path d="M351.702 800.072C351.702 800.072 358.014 848.173 329.006 872.818C299.997 897.462 252.735 874.521 230.879 890.725C230.879 890.725 241.799 803.625 290.329 794.119C330.47 786.183 351.702 800.072 351.702 800.072Z" fill="#70E0A3"/>
<path d="M152.163 829.692C152.163 829.692 196.397 843.356 206.75 881.559C217.103 919.763 179.172 956.258 184.893 984.172C184.893 984.172 113.323 937.909 123.543 886.922C132.116 844.699 152.163 829.692 152.163 829.692Z" fill="#70E0A3"/>
<path d="M306.789 904.042C306.789 904.042 317.686 951.315 291.198 978.896C264.71 1006.48 215.621 988.848 195.412 1007.25C195.412 1007.25 197.906 919.247 245.191 904.671C284.377 892.597 306.789 904.042 306.789 904.042Z" fill="#70E0A3"/>
<path d="M114.704 955.694C114.704 955.694 159.934 964.748 173.703 1001.74C187.57 1038.78 153.228 1079.06 161.536 1106.21C161.536 1106.21 86.0812 1067.48 91.5298 1015.67C96.0615 972.636 114.704 955.694 114.704 955.694Z" fill="#70E0A3"/>
<path d="M275.203 1013.8C275.203 1013.8 290.393 1059.83 266.671 1090.1C242.949 1120.36 192.521 1107.8 174.154 1128.25C174.154 1128.25 168.461 1040.38 214.063 1020.88C251.951 1004.61 275.203 1013.8 275.203 1013.8Z" fill="#70E0A3"/>
<path d="M85.8567 1084.76C85.8567 1084.76 131.596 1088.94 148.881 1124.26C166.118 1159.67 135.999 1203.44 146.845 1229.66C146.845 1229.66 68.2835 1199.15 68.6662 1146.87C68.959 1103.7 85.8567 1084.76 85.8567 1084.76Z" fill="#70E0A3"/>
<path d="M250.917 1125.53C250.917 1125.53 270.404 1169.79 249.741 1202.39C229.029 1235.09 177.699 1227.96 161.468 1250.36C161.468 1250.36 147.437 1163.44 190.82 1139.11C226.826 1118.83 250.917 1125.53 250.917 1125.53Z" fill="#70E0A3"/>
<path d="M69.871 1214.47C69.871 1214.47 115.773 1215 135.403 1249.02C155.131 1283.11 128.121 1329.1 140.725 1354.49C140.725 1354.49 60.2836 1330.16 57.06 1277.96C54.3321 1234.67 69.871 1214.47 69.871 1214.47Z" fill="#70E0A3"/>
<path d="M237.037 1242.21C237.037 1242.21 259.553 1284.79 241.27 1319.08C222.987 1353.38 171.347 1350.21 156.718 1373.87C156.718 1373.87 136.591 1288.11 178.137 1260.44C212.645 1237.41 237.037 1242.21 237.037 1242.21Z" fill="#70E0A3"/>
<path d="M62.8867 1347.2C62.8867 1347.2 108.567 1342.83 131.375 1374.61C154.183 1406.4 131.839 1455.22 146.789 1479.06C146.789 1479.06 64.6024 1463.44 56.3082 1411.8C49.387 1369.04 62.8867 1347.2 62.8867 1347.2Z" fill="#70E0A3"/>
<path d="M231.693 1357.01C231.693 1357.01 258.119 1397.1 243.288 1433.17C228.456 1469.24 176.791 1471.73 164.544 1496.84C164.544 1496.84 136.315 1413.58 174.958 1381.47C206.996 1354.88 231.693 1357.01 231.693 1357.01Z" fill="#70E0A3"/>
<path d="M148.12 409.345C148.12 409.345 187.035 435.555 186.855 475.179C186.676 514.803 140.373 538.303 138.393 566.617C138.393 566.617 81.8218 501.017 105.321 455.411C124.692 417.59 148.12 409.345 148.12 409.345Z" fill="#70E0A3"/>
<path d="M277.164 526.478C277.164 526.478 274.996 574.808 242.068 593.295C209.14 611.782 166.547 580.193 142.227 591.815C142.227 591.815 168.138 508.588 217.647 508.779C258.629 508.787 277.164 526.478 277.164 526.478Z" fill="#70E0A3"/>
<path d="M75.3181 516.78C75.3181 516.78 116.542 538.716 120.116 578.215C123.689 617.714 79.9471 646.107 80.7444 674.532C80.7444 674.532 18.2966 615.239 37.2748 567.271C52.805 527.463 75.3181 516.78 75.3181 516.78Z" fill="#70E0A3"/>
<path d="M214.757 619.777C214.757 619.777 217.218 668.207 186.321 690.135C155.424 712.062 110.081 685.148 87.0161 699.267C87.0161 699.267 104.752 613.601 153.895 608.431C194.654 604.06 214.757 619.777 214.757 619.777Z" fill="#70E0A3"/>
<path d="M14.283 629.923C14.283 629.923 56.8376 648.594 63.1906 687.69C69.4944 726.887 27.9789 758.57 30.6771 786.882C30.6771 786.882 -35.6919 732.651 -20.2159 683.269C-7.36092 642.374 14.283 629.923 14.283 629.923Z" fill="#70E0A3"/>
<path d="M160.351 721.741C160.351 721.741 166.176 769.831 136.925 794.213C107.723 818.493 60.6578 795.145 38.6568 811.14C38.6568 811.14 50.3556 724.211 98.9322 715.118C139.314 707.701 160.351 721.741 160.351 721.741Z" fill="#70E0A3"/>
<path d="M-39.374 749.452C-39.374 749.452 4.7606 763.577 14.7235 801.824C24.7836 840.124 -13.4381 876.201 -8.00961 904.212C-8.00961 904.212 -79.1386 857.289 -68.4801 806.414C-59.6638 764.197 -39.374 749.452 -39.374 749.452Z" fill="#70E0A3"/>
<path d="M114.515 825.33C114.515 825.33 124.972 872.748 98.2416 900.066C71.5112 927.385 22.5708 909.193 2.1674 927.487C2.1674 927.487 5.48912 839.554 52.8217 825.391C92.2493 813.58 114.515 825.33 114.515 825.33Z" fill="#70E0A3"/>
<path d="M-78.0487 874.913C-78.0487 874.913 -32.9186 884.428 -19.4419 921.516C-6.01436 958.705 -40.5498 998.618 -32.5351 1025.86C-32.5351 1025.86 -107.596 986.315 -101.709 934.617C-96.886 891.749 -78.0487 874.913 -78.0487 874.913Z" fill="#70E0A3"/>
<path d="M82.0038 934.713C82.0038 934.713 96.7552 980.885 72.7903 1010.89C48.8254 1040.89 -1.60022 1027.81 -20.1119 1048.05C-20.1119 1048.05 -25.0256 960.096 20.8182 941.115C58.7534 925.257 82.0038 934.713 82.0038 934.713Z" fill="#70E0A3"/>
<path d="M-108.113 1003.7C-108.113 1003.7 -62.3275 1008.29 -45.433 1043.9C-28.5385 1079.52 -58.9967 1122.97 -48.4438 1149.29C-48.4438 1149.29 -126.758 1118.01 -125.888 1065.74C-125.059 1022.48 -108.113 1003.7 -108.113 1003.7Z" fill="#70E0A3"/>
<path d="M56.6471 1046.1C56.6471 1046.1 75.6946 1090.51 54.74 1122.95C33.7854 1155.38 -17.4446 1147.8 -33.9182 1169.93C-33.9182 1169.93 -47.2171 1082.77 -3.59313 1058.96C32.605 1039.31 56.6471 1046.1 56.6471 1046.1Z" fill="#70E0A3"/>
<path d="M41.7446 1162.61C41.7446 1162.61 63.8691 1205.49 45.2466 1239.47C26.6241 1273.44 -24.9655 1269.91 -39.7394 1293.37C-39.7394 1293.37 -59.0377 1207.42 -17.3476 1180.22C17.4015 1157.71 41.7446 1162.61 41.7446 1162.61Z" fill="#70E0A3"/>
<path d="M35.2799 1277.44C35.2799 1277.44 61.3633 1317.73 46.0942 1353.68C30.9223 1389.69 -20.6917 1391.57 -33.2309 1416.51C-33.2309 1416.51 -60.6777 1332.91 -21.7941 1301.32C10.5843 1275.05 35.2799 1277.44 35.2799 1277.44Z" fill="#70E0A3"/>
<path d="M713.407 632.417C713.407 632.417 753.303 657.104 754.342 696.754C755.43 736.302 710.093 761.625 709.136 790.116C709.136 790.116 650.361 726.784 672.208 680.267C690.414 641.546 713.407 632.417 713.407 632.417Z" fill="#70E0A3"/>
<path d="M846.469 744.541C846.469 744.541 845.958 793.01 813.755 812.799C781.552 832.589 737.928 802.624 713.895 815.178C713.895 815.178 736.839 730.962 786.308 729.196C827.346 727.558 846.469 744.541 846.469 744.541Z" fill="#70E0A3"/>
<path d="M644.49 742.766C644.49 742.766 686.452 763.174 691.342 802.496C696.232 841.817 653.652 871.882 655.326 900.275C655.326 900.275 590.821 843.459 608.048 794.784C622.411 754.333 644.49 742.766 644.49 742.766Z" fill="#70E0A3"/>
<path d="M787.365 840.176C787.365 840.176 791.484 888.487 761.458 911.669C731.336 934.797 685.156 909.614 662.574 924.773C662.574 924.773 677.34 838.374 726.298 831.296C766.819 825.375 787.365 840.176 787.365 840.176Z" fill="#70E0A3"/>
<path d="M587.538 858.158C587.538 858.158 630.783 875.146 638.452 914.064C646.122 952.982 605.768 986.337 609.49 1014.57C609.49 1014.57 541.257 962.922 555.03 912.989C566.426 871.548 587.538 858.158 587.538 858.158Z" fill="#70E0A3"/>
<path d="M736.702 944.331C736.702 944.331 744.233 992.2 715.903 1017.73C687.572 1043.27 639.768 1021.7 618.348 1038.54C618.348 1038.54 626.979 951.078 675.174 940.227C715.125 931.154 736.702 944.331 736.702 944.331Z" fill="#70E0A3"/>
<path d="M538.111 979.889C538.111 979.889 582.643 992.17 593.972 1030.14C605.301 1068.1 568.436 1105.7 574.793 1133.32C574.793 1133.32 502.092 1089.14 510.949 1037.92C518.354 995.314 538.111 979.889 538.111 979.889Z" fill="#70E0A3"/>
<path d="M694.56 1049.7C694.56 1049.7 706.628 1096.58 680.965 1125.01C655.302 1153.43 605.719 1137.08 586.044 1156.16C586.044 1156.16 586.198 1068.16 633.101 1052.08C671.852 1038.86 694.56 1049.7 694.56 1049.7Z" fill="#70E0A3"/>
<path d="M503.863 1106.89C503.863 1106.89 549.245 1114.61 564.039 1151.26C578.834 1187.91 545.608 1229.19 554.647 1256.09C554.647 1256.09 478.257 1219.56 482.343 1167.51C485.705 1124.35 503.863 1106.89 503.863 1106.89Z" fill="#70E0A3"/>
<path d="M665.894 1160.3C665.894 1160.3 682.208 1205.78 659.359 1236.79C636.413 1267.74 585.687 1256.56 567.902 1277.58C567.902 1277.58 559.918 1189.87 604.941 1169.02C642.298 1151.81 665.894 1160.3 665.894 1160.3Z" fill="#70E0A3"/>
<path d="M478.423 1236.8C478.423 1236.8 524.217 1239.59 542.43 1274.51C560.644 1309.44 531.593 1354.05 543.074 1379.98C543.074 1379.98 463.771 1351.77 462.789 1299.51C462.06 1256.16 478.423 1236.8 478.423 1236.8Z" fill="#70E0A3"/>
<path d="M644.334 1272.74C644.334 1272.74 664.993 1316.37 645.106 1349.65C625.22 1382.93 573.883 1377.35 558.186 1400.17C558.186 1400.17 541.912 1313.56 584.667 1287.98C620.142 1266.77 644.334 1272.74 644.334 1272.74Z" fill="#70E0A3"/>
<path d="M465.798 1366.94C465.798 1366.94 511.608 1366.13 532.265 1399.56C552.824 1432.94 527.077 1479.89 540.365 1504.88C540.365 1504.88 459.377 1482.96 454.788 1430.78C450.89 1387.62 465.798 1366.94 465.798 1366.94Z" fill="#70E0A3"/>
<path d="M633.668 1389.91C633.668 1389.91 657.259 1431.79 639.899 1466.72C622.491 1501.5 570.844 1499.87 556.896 1523.91C556.896 1523.91 534.524 1438.72 575.296 1409.85C609.175 1385.83 633.668 1389.91 633.668 1389.91Z" fill="#70E0A3"/>
<path d="M462.37 1499.95C462.37 1499.95 507.812 1494.29 531.452 1525.37C555.092 1556.45 534.011 1605.97 549.548 1629.36C549.548 1629.36 466.961 1616.11 457.447 1564.69C449.453 1522.11 462.37 1499.95 462.37 1499.95Z" fill="#70E0A3"/>
<path d="M631.247 1504.77C631.247 1504.77 658.7 1544.01 644.744 1580.56C630.788 1617.11 579.408 1621.05 567.744 1646.48C567.744 1646.48 537.417 1564 575.186 1530.89C606.401 1503.47 631.247 1504.77 631.247 1504.77Z" fill="#70E0A3"/>
<path d="M523.006 559.51C523.006 559.51 562.608 584.551 563.403 624.196C564.198 663.84 518.523 688.589 517.322 717.075C517.322 717.075 459.087 653.137 481.419 606.888C499.867 568.43 523.006 559.51 523.006 559.51Z" fill="#70E0A3"/>
<path d="M655.088 672.899C655.088 672.899 654.089 721.357 621.839 740.734C589.443 760.159 546.113 729.84 521.985 742.084C521.985 742.084 545.804 658.092 595.174 656.788C636.112 655.868 655.088 672.899 655.088 672.899Z" fill="#70E0A3"/>
<path d="M453.118 669.066C453.118 669.066 494.883 689.882 499.432 729.144C503.982 768.406 461.062 798.155 462.59 826.597C462.59 826.597 398.623 769.175 416.288 720.612C430.992 680.478 453.118 669.066 453.118 669.066Z" fill="#70E0A3"/>
<path d="M595.109 768.053C595.109 768.053 598.837 816.407 568.472 839.272C538.157 862.036 492.173 836.446 469.495 851.294C469.495 851.294 485.041 765.065 533.996 758.503C574.613 752.892 595.109 768.053 595.109 768.053Z" fill="#70E0A3"/>
<path d="M395.047 783.971C395.047 783.971 438.095 801.366 445.375 840.327C452.654 879.288 412.01 912.226 415.489 940.452C415.489 940.452 347.747 888.043 361.909 838.325C373.839 797.049 395.047 783.971 395.047 783.971Z" fill="#70E0A3"/>
<path d="M543.523 871.569C543.523 871.569 550.615 919.584 522.091 944.754C493.567 969.923 445.96 947.952 424.297 964.521C424.297 964.521 433.707 877.234 482.046 866.849C522.044 858.189 543.523 871.569 543.523 871.569Z" fill="#70E0A3"/>
<path d="M344.551 905.112C344.551 905.112 388.984 917.854 400.02 955.918C411.056 993.982 373.804 1031.11 379.964 1058.88C379.964 1058.88 307.608 1013.99 316.952 962.776C324.697 920.484 344.551 905.112 344.551 905.112Z" fill="#70E0A3"/>
<path d="M500.36 976.503C500.36 976.503 511.989 1023.53 486.083 1051.69C460.08 1079.8 410.694 1063.04 390.873 1081.91C390.873 1081.91 391.905 993.879 438.903 978.37C477.75 965.466 500.36 976.503 500.36 976.503Z" fill="#70E0A3"/>
<path d="M309.233 1031.78C309.233 1031.78 354.564 1039.86 369.017 1076.71C383.518 1113.46 349.953 1154.42 358.553 1181.47C358.553 1181.47 282.507 1144.22 287.08 1092.18C290.93 1049.04 309.233 1031.78 309.233 1031.78Z" fill="#70E0A3"/>
<path d="M470.72 1086.82C470.72 1086.82 486.692 1132.51 463.454 1163.3C440.217 1194.09 389.639 1182.34 371.563 1203.21C371.563 1203.21 364.358 1115.41 409.624 1095.08C447.223 1078.13 470.72 1086.82 470.72 1086.82Z" fill="#70E0A3"/>
<path d="M282.575 1161.41C282.575 1161.41 328.367 1164.71 346.288 1199.73C364.159 1234.86 334.769 1279.15 345.957 1305.18C345.957 1305.18 266.804 1276.14 266.406 1223.95C266.018 1180.66 282.575 1161.41 282.575 1161.41Z" fill="#70E0A3"/>
<path d="M448.186 1198.99C448.186 1198.99 468.357 1242.86 448.326 1275.94C428.294 1309.01 376.862 1302.86 360.971 1325.57C360.971 1325.57 345.477 1238.88 388.425 1213.66C424.093 1192.81 448.186 1198.99 448.186 1198.99Z" fill="#70E0A3"/>
<path d="M268.781 1291.42C268.781 1291.42 314.639 1291.02 334.904 1324.75C355.219 1358.38 329.034 1404.96 342.029 1430.05C342.029 1430.05 261.191 1407.31 257.09 1355.14C253.679 1311.99 268.781 1291.42 268.781 1291.42Z" fill="#70E0A3"/>
<path d="M436.401 1315.92C436.401 1315.92 459.6 1358.11 441.901 1392.72C424.201 1427.34 372.557 1425.2 358.317 1449.08C358.317 1449.08 336.774 1363.7 377.837 1335.25C411.957 1311.74 436.401 1315.92 436.401 1315.92Z" fill="#70E0A3"/>
<path d="M264.038 1424.35C264.038 1424.35 309.527 1419.11 332.922 1450.44C356.317 1481.77 334.75 1531.02 350.092 1554.56C350.092 1554.56 267.655 1540.48 258.531 1489.03C251.024 1446.46 264.038 1424.35 264.038 1424.35Z" fill="#70E0A3"/>
<path d="M432.956 1430.87C432.956 1430.87 460.018 1470.41 445.77 1506.8C431.523 1543.19 380.048 1546.56 368.189 1571.88C368.189 1571.88 338.594 1489.16 376.606 1456.32C408.257 1429.26 432.956 1430.87 432.956 1430.87Z" fill="#70E0A3"/>
<path d="M1091.54 776.63C1091.54 776.63 1131.92 800.298 1133.99 839.868C1136.05 879.437 1091.24 905.954 1090.97 934.305C1090.97 934.305 1030.72 872.486 1051.5 825.38C1068.69 786.483 1091.54 776.63 1091.54 776.63Z" fill="#70E0A3"/>
<path d="M1227.1 885.36C1227.1 885.36 1227.71 933.801 1195.99 954.373C1164.27 974.945 1119.96 946.149 1096.36 959.33C1096.36 959.33 1117.36 874.557 1166.74 871.451C1207.58 868.934 1227.1 885.36 1227.1 885.36Z" fill="#70E0A3"/>
<path d="M1025.19 888.784C1025.19 888.784 1067.6 908.018 1073.42 947.205C1079.23 986.392 1037.33 1017.6 1039.73 1046.01C1039.73 1046.01 973.955 990.816 990.063 941.654C1003.55 900.978 1025.19 888.784 1025.19 888.784Z" fill="#70E0A3"/>
<path d="M1170.33 982.537C1170.33 982.537 1175.62 1030.72 1146.07 1054.68C1116.53 1078.65 1069.76 1054.69 1047.57 1070.32C1047.57 1070.32 1060.29 983.565 1109.01 975.196C1149.39 968.294 1170.33 982.537 1170.33 982.537Z" fill="#70E0A3"/>
<path d="M971.012 1005.83C971.012 1005.83 1014.55 1021.69 1023.15 1060.48C1031.7 1099.11 992.167 1133.56 996.523 1161.75C996.523 1161.75 927.211 1111.83 939.669 1061.56C950.19 1019.64 971.012 1005.83 971.012 1005.83Z" fill="#70E0A3"/>
<path d="M1122.09 1088.03C1122.09 1088.03 1130.7 1135.72 1103 1161.99C1075.3 1188.25 1027 1167.97 1005.97 1185.27C1005.97 1185.27 1012.6 1097.61 1060.46 1085.42C1100.27 1075.36 1122.09 1088.03 1122.09 1088.03Z" fill="#70E0A3"/>
<path d="M924.454 1128.76C924.454 1128.76 969.284 1139.91 981.491 1177.59C993.698 1215.27 957.756 1253.76 964.746 1281.34C964.746 1281.34 891.013 1239.04 898.75 1187.59C905.133 1144.81 924.454 1128.76 924.454 1128.76Z" fill="#70E0A3"/>
<path d="M1082.38 1194.48C1082.38 1194.48 1095.57 1241.08 1070.54 1270.24C1045.51 1299.39 995.676 1284.32 976.388 1303.88C976.388 1303.88 974.593 1215.83 1020.97 1198.56C1059.53 1184.21 1082.38 1194.48 1082.38 1194.48Z" fill="#70E0A3"/>
<path d="M893.224 1256.64C893.224 1256.64 938.806 1263.18 954.431 1299.39C970.055 1335.6 937.848 1377.82 947.474 1404.54C947.474 1404.54 870.343 1370.04 873.162 1317.81C875.551 1274.63 893.224 1256.64 893.224 1256.64Z" fill="#70E0A3"/>
<path d="M1056.3 1305.85C1056.3 1305.85 1073.64 1351 1051.52 1382.54C1029.4 1414.07 978.37 1404.27 961.071 1425.83C961.071 1425.83 951.039 1338.27 995.629 1316.28C1032.6 1298.09 1056.3 1305.85 1056.3 1305.85Z" fill="#70E0A3"/>
<path d="M870.899 1387.24C870.899 1387.24 916.747 1388.9 935.791 1423.38C954.737 1457.8 926.852 1503.31 938.871 1528.89C938.871 1528.89 858.925 1502.78 856.725 1450.49C854.924 1407.07 870.899 1387.24 870.899 1387.24Z" fill="#70E0A3"/>
<path d="M1037.51 1418.93C1037.51 1418.93 1059.15 1462.06 1040.14 1495.82C1021.12 1529.58 969.636 1525.34 954.473 1548.58C954.473 1548.58 936.151 1462.39 978.326 1435.72C1013.27 1413.57 1037.51 1418.93 1037.51 1418.93Z" fill="#70E0A3"/>
<path d="M861.294 1517.75C861.294 1517.75 907.061 1515.75 928.45 1548.69C949.84 1581.62 925.162 1629.16 938.987 1653.8C938.987 1653.8 857.503 1633.93 851.695 1581.98C846.823 1538.8 861.294 1517.75 861.294 1517.75Z" fill="#70E0A3"/>
<path d="M1029.57 1536.3C1029.57 1536.3 1054.14 1577.69 1037.61 1612.95C1021.08 1648.21 969.373 1647.97 956.008 1672.33C956.008 1672.33 931.733 1587.77 971.779 1557.86C1004.88 1532.89 1029.57 1536.3 1029.57 1536.3Z" fill="#70E0A3"/>
<path d="M860.886 1650.88C860.886 1650.88 906.188 1643.99 930.561 1674.57C954.983 1705.04 935.021 1755.05 951.095 1778.09C951.095 1778.09 868.304 1767.05 857.474 1715.81C848.553 1673.37 860.886 1650.88 860.886 1650.88Z" fill="#70E0A3"/>
<path d="M1029.78 1651.33C1029.78 1651.33 1058.16 1689.92 1045.04 1726.8C1031.91 1763.67 980.619 1768.95 969.635 1794.75C969.635 1794.75 937.355 1713 974.35 1678.96C1005.03 1650.59 1029.78 1651.33 1029.78 1651.33Z" fill="#70E0A3"/>
<path d="M899.552 708.784C899.552 708.784 939.743 732.86 941.416 772.472C943.088 812.084 898.139 838.135 897.571 866.583C897.571 866.583 837.867 804.158 859.033 757.266C876.606 718.325 899.552 708.784 899.552 708.784Z" fill="#70E0A3"/>
<path d="M1034.14 818.779C1034.14 818.779 1034.35 867.263 1002.44 887.471C970.53 907.678 926.512 878.528 902.673 891.447C902.673 891.447 924.449 806.845 973.824 804.254C1014.86 802.101 1034.14 818.779 1034.14 818.779Z" fill="#70E0A3"/>
<path d="M832.239 820.145C832.239 820.145 874.448 839.787 879.972 879.07C885.496 918.353 843.205 949.094 845.367 977.497C845.367 977.497 780.125 921.695 796.623 872.747C810.354 832.077 832.239 820.145 832.239 820.145Z" fill="#70E0A3"/>
<path d="M976.537 915.373C976.537 915.373 981.387 963.7 951.652 987.299C921.917 1010.9 875.344 986.531 853.004 1001.95C853.004 1001.95 866.504 915.371 915.271 907.415C955.6 900.872 976.537 915.373 976.537 915.373Z" fill="#70E0A3"/>
<path d="M776.988 936.603C776.988 936.603 820.43 952.926 828.636 991.753C836.842 1030.58 796.924 1064.56 801.183 1092.7C801.183 1092.7 732.215 1042.07 745.258 991.862C756.021 950.202 776.988 936.603 776.988 936.603Z" fill="#70E0A3"/>
<path d="M927.332 1020.33C927.332 1020.33 935.497 1068.16 907.604 1094.07C879.71 1119.97 831.512 1099.22 810.286 1116.42C810.286 1116.42 817.601 1028.88 865.702 1017.2C905.608 1007.46 927.332 1020.33 927.332 1020.33Z" fill="#70E0A3"/>
<path d="M729.311 1059.04C729.311 1059.04 774.042 1070.66 785.859 1108.38C797.773 1146.15 761.394 1184.28 768.238 1211.9C768.238 1211.9 694.898 1168.79 703.074 1117.45C709.845 1074.88 729.311 1059.04 729.311 1059.04Z" fill="#70E0A3"/>
<path d="M886.699 1126.4C886.699 1126.4 899.449 1173.15 874.174 1202.04C848.947 1230.83 799.166 1215.4 779.732 1234.74C779.732 1234.74 778.669 1146.72 825.282 1129.97C863.843 1115.87 886.699 1126.4 886.699 1126.4Z" fill="#70E0A3"/>
<path d="M697.011 1186.59C697.011 1186.59 742.493 1193.59 757.776 1230C773.059 1266.41 740.465 1308.16 749.894 1335.02C749.894 1335.02 673.06 1299.66 676.414 1247.6C679.046 1204.43 697.011 1186.59 697.011 1186.59Z" fill="#70E0A3"/>
<path d="M859.638 1237.49C859.638 1237.49 876.634 1282.84 854.175 1314.06C831.666 1345.38 780.886 1335.07 763.345 1356.36C763.345 1356.36 754.093 1268.73 798.827 1247.2C835.894 1229.32 859.638 1237.49 859.638 1237.49Z" fill="#70E0A3"/>
<path d="M673.323 1316.96C673.323 1316.96 719.218 1319.03 737.822 1353.65C756.524 1388.33 728.105 1433.42 740.025 1459.2C740.025 1459.2 660.375 1432.22 658.613 1380.05C657.299 1336.63 673.323 1316.96 673.323 1316.96Z" fill="#70E0A3"/>
<path d="M839.782 1350.24C839.782 1350.24 860.978 1393.51 841.675 1427.11C822.372 1460.72 770.886 1455.95 755.48 1478.94C755.48 1478.94 737.938 1392.66 780.306 1366.35C815.49 1344.72 839.782 1350.24 839.782 1350.24Z" fill="#70E0A3"/>
<path d="M662.645 1447.4C662.645 1447.4 708.459 1445.81 729.507 1478.94C750.555 1512.08 725.488 1559.4 739.167 1584.09C739.167 1584.09 657.832 1563.4 652.561 1511.36C648.03 1468.23 662.645 1447.4 662.645 1447.4Z" fill="#70E0A3"/>
<path d="M830.772 1467.54C830.772 1467.54 854.997 1509.13 838.076 1544.17C821.154 1579.21 769.552 1578.51 755.895 1602.72C755.895 1602.72 732.352 1517.91 772.688 1488.42C806.179 1463.92 830.772 1467.54 830.772 1467.54Z" fill="#70E0A3"/>
<path d="M661.02 1580.5C661.02 1580.5 706.369 1574.01 730.497 1604.85C754.528 1635.63 734.177 1685.42 750.055 1708.61C750.055 1708.61 667.316 1696.69 656.974 1645.47C648.493 1602.88 661.02 1580.5 661.02 1580.5Z" fill="#70E0A3"/>
<path d="M829.959 1582.65C829.959 1582.65 857.949 1621.54 844.528 1658.25C831.107 1694.97 779.772 1699.83 768.546 1725.37C768.546 1725.37 736.999 1643.38 774.235 1609.6C805.208 1581.65 829.959 1582.65 829.959 1582.65Z" fill="#70E0A3"/>
<path d="M1474.78 900.573C1474.78 900.573 1515.75 923.019 1518.79 962.609C1521.83 1002.2 1477.8 1029.92 1478.25 1058.28C1478.25 1058.28 1416.44 998.181 1436 950.534C1452.17 910.945 1474.78 900.573 1474.78 900.573Z" fill="#70E0A3"/>
<path d="M1411.35 1014.59C1411.35 1014.59 1454.2 1032.65 1461.09 1071.66C1467.93 1110.76 1426.85 1143.07 1430.03 1171.39C1430.03 1171.39 1362.93 1118.18 1377.68 1068.52C1390 1027.46 1411.35 1014.59 1411.35 1014.59Z" fill="#70E0A3"/>
<path d="M1558.74 1104.17C1558.74 1104.17 1565.3 1152.28 1536.39 1176.98C1507.57 1201.73 1460.11 1179.2 1438.36 1195.45C1438.36 1195.45 1448.79 1108.34 1497.22 1098.53C1537.46 1090.39 1558.74 1104.17 1558.74 1104.17Z" fill="#70E0A3"/>
<path d="M1360.23 1133.2C1360.23 1133.2 1404.12 1147.83 1413.74 1186.28C1423.36 1224.72 1384.65 1260.27 1389.84 1288.28C1389.84 1288.28 1319.2 1240.34 1330.49 1189.68C1339.84 1147.63 1360.23 1133.2 1360.23 1133.2Z" fill="#70E0A3"/>
<path d="M1513.33 1210.96C1513.33 1210.96 1523.25 1258.47 1496.18 1285.47C1469.11 1312.48 1420.37 1293.62 1399.87 1311.6C1399.87 1311.6 1404.12 1223.79 1451.79 1210.2C1491.16 1199.01 1513.33 1210.96 1513.33 1210.96Z" fill="#70E0A3"/>
<path d="M1316.98 1257.43C1316.98 1257.43 1362.06 1267.3 1375.19 1304.59C1388.33 1341.87 1353.45 1381.47 1361.18 1408.81C1361.18 1408.81 1286.41 1368.65 1292.78 1316.97C1298 1274.05 1316.98 1257.43 1316.98 1257.43Z" fill="#70E0A3"/>
<path d="M1476.49 1318.61C1476.49 1318.61 1490.85 1364.82 1466.59 1394.66C1442.34 1424.5 1392.16 1410.92 1373.36 1431C1373.36 1431 1369.17 1343.06 1415.11 1324.39C1453.29 1309.05 1476.49 1318.61 1476.49 1318.61Z" fill="#70E0A3"/>
<path d="M1289.11 1386.26C1289.11 1386.26 1334.84 1391.47 1351.3 1427.23C1367.85 1463.04 1336.81 1506.17 1347.07 1532.59C1347.07 1532.59 1269.1 1500.34 1270.6 1448.03C1271.92 1404.78 1289.11 1386.26 1289.11 1386.26Z" fill="#70E0A3"/>
<path d="M1453.32 1430.81C1453.32 1430.81 1471.88 1475.47 1450.54 1507.69C1429.19 1539.91 1378.07 1531.61 1361.3 1553.58C1361.3 1553.58 1349.03 1466.34 1392.89 1443.05C1429.38 1423.56 1453.32 1430.81 1453.32 1430.81Z" fill="#70E0A3"/>
<path d="M1270.14 1517.55C1270.14 1517.55 1316.05 1517.82 1335.87 1551.7C1355.79 1585.63 1329.03 1631.89 1341.73 1657.07C1341.73 1657.07 1261.19 1633.2 1257.67 1581.1C1254.8 1537.86 1270.14 1517.55 1270.14 1517.55Z" fill="#70E0A3"/>
<path d="M1437.51 1544.36C1437.51 1544.36 1460.22 1586.8 1442.13 1621.2C1424.04 1655.6 1372.35 1652.79 1357.87 1676.41C1357.87 1676.41 1337.3 1590.79 1378.7 1562.91C1413.02 1539.77 1437.51 1544.36 1437.51 1544.36Z" fill="#70E0A3"/>
<path d="M1263.95 1648.39C1263.95 1648.39 1309.62 1645.05 1331.79 1677.39C1353.97 1709.72 1330.55 1757.96 1345.06 1782.2C1345.06 1782.2 1263.18 1764.69 1255.96 1712.86C1250.06 1669.76 1263.95 1648.39 1263.95 1648.39Z" fill="#70E0A3"/>
<path d="M1432.54 1661.96C1432.54 1661.96 1458.09 1702.6 1442.58 1738.29C1427.06 1773.98 1375.35 1775.29 1362.52 1800.07C1362.52 1800.07 1336.05 1716.23 1375.32 1685.12C1407.85 1659.31 1432.54 1661.96 1432.54 1661.96Z" fill="#70E0A3"/>
<path d="M1267 1781.5C1267 1781.5 1312.06 1773.31 1337.17 1803.13C1362.28 1832.95 1343.78 1883.5 1360.44 1906.1C1360.44 1906.1 1277.34 1897.46 1265.24 1846.56C1255.35 1804.35 1267 1781.5 1267 1781.5Z" fill="#70E0A3"/>
<path d="M1435.82 1777C1435.82 1777 1465.13 1814.68 1453.03 1851.99C1440.92 1889.3 1389.77 1896.07 1379.42 1922.1C1379.42 1922.1 1345.04 1841.38 1381.11 1806.19C1411.07 1777.03 1435.82 1777 1435.82 1777Z" fill="#70E0A3"/>
<path d="M1281.16 838.147C1281.16 838.147 1321.94 861 1324.64 900.532C1327.33 940.063 1283.11 967.416 1283.27 995.88C1283.27 995.88 1222 935.171 1241.95 887.738C1258.5 848.364 1281.16 838.147 1281.16 838.147Z" fill="#70E0A3"/>
<path d="M1418.49 944.239C1418.49 944.239 1419.98 992.647 1388.55 1013.89C1357.12 1035.14 1312.41 1007.16 1289.01 1020.71C1289.01 1020.71 1308.59 935.543 1357.83 931.456C1398.68 928.167 1418.49 944.239 1418.49 944.239Z" fill="#70E0A3"/>
<path d="M1216.81 951.527C1216.81 951.527 1259.46 969.995 1265.96 1009.04C1272.46 1048.09 1231.14 1080.14 1233.98 1108.4C1233.98 1108.4 1167.32 1054.52 1182.6 1005.03C1195.21 964.134 1216.81 951.527 1216.81 951.527Z" fill="#70E0A3"/>
<path d="M1363.37 1042.58C1363.37 1042.58 1369.44 1090.68 1340.38 1115.17C1311.32 1139.66 1264.11 1116.61 1242.21 1132.66C1242.21 1132.66 1253.47 1045.62 1302 1036.37C1342.14 1028.69 1363.37 1042.58 1363.37 1042.58Z" fill="#70E0A3"/>
<path d="M1164.57 1069.65C1164.57 1069.65 1208.36 1084.74 1217.59 1123.23C1226.82 1161.72 1187.87 1197.01 1192.72 1224.95C1192.72 1224.95 1122.52 1176.35 1134.25 1125.81C1143.94 1083.82 1164.57 1069.65 1164.57 1069.65Z" fill="#70E0A3"/>
<path d="M1316.93 1148.94C1316.93 1148.94 1326.37 1196.44 1299.15 1223.23C1271.94 1250.02 1223.34 1230.61 1202.55 1248.43C1202.55 1248.43 1207.63 1160.69 1255.3 1147.61C1294.87 1136.78 1316.93 1148.94 1316.93 1148.94Z" fill="#70E0A3"/>
<path d="M1120.06 1193.44C1120.06 1193.44 1165.04 1203.77 1177.88 1241.16C1190.72 1278.54 1155.41 1317.77 1162.94 1345.26C1162.94 1345.26 1088.51 1304.39 1095.38 1252.71C1101.08 1209.81 1120.06 1193.44 1120.06 1193.44Z" fill="#70E0A3"/>
<path d="M1279.17 1256.2C1279.17 1256.2 1293.09 1302.56 1268.59 1332.14C1244.09 1361.72 1193.92 1347.62 1175.07 1367.54C1175.07 1367.54 1171.66 1279.52 1217.84 1261.37C1255.97 1246.39 1279.17 1256.2 1279.17 1256.2Z" fill="#70E0A3"/>
<path d="M1091.12 1321.94C1091.12 1321.94 1136.75 1327.6 1153.01 1363.52C1169.27 1399.43 1137.79 1442.19 1147.86 1468.75C1147.86 1468.75 1070.18 1435.64 1072.12 1383.44C1073.64 1340.3 1091.12 1321.94 1091.12 1321.94Z" fill="#70E0A3"/>
<path d="M1254.93 1368.08C1254.93 1368.08 1273.05 1412.88 1251.47 1444.84C1229.88 1476.8 1178.75 1467.98 1161.79 1489.85C1161.79 1489.85 1150.3 1402.52 1194.45 1379.64C1231.04 1360.72 1254.93 1368.08 1254.93 1368.08Z" fill="#70E0A3"/>
<path d="M1070.88 1453.05C1070.88 1453.05 1116.78 1453.83 1136.27 1487.91C1155.85 1522.04 1128.74 1567.98 1141.25 1593.31C1141.25 1593.31 1060.86 1568.63 1057.88 1516.43C1055.39 1473.14 1070.88 1453.05 1070.88 1453.05Z" fill="#70E0A3"/>
<path d="M1238.1 1481.45C1238.1 1481.45 1260.42 1524.19 1241.99 1558.27C1223.61 1592.51 1171.97 1589.08 1157.24 1612.7C1157.24 1612.7 1137.51 1526.89 1179.1 1499.38C1213.7 1476.66 1238.1 1481.45 1238.1 1481.45Z" fill="#70E0A3"/>
<path d="M1063.67 1583.71C1063.67 1583.71 1109.39 1580.79 1131.31 1613.37C1153.19 1645.8 1129.34 1693.92 1143.66 1718.32C1143.66 1718.32 1061.92 1699.99 1055.19 1648.17C1049.53 1605.08 1063.67 1583.71 1063.67 1583.71Z" fill="#70E0A3"/>
<path d="M1232.15 1599.02C1232.15 1599.02 1257.36 1639.86 1241.51 1675.5C1225.65 1711.13 1173.9 1711.76 1160.87 1736.44C1160.87 1736.44 1135.13 1652.36 1174.75 1621.56C1207.46 1596.13 1232.15 1599.02 1232.15 1599.02Z" fill="#70E0A3"/>
<path d="M1065.45 1716.89C1065.45 1716.89 1110.66 1709.17 1135.42 1739.19C1160.29 1769.27 1141.25 1819.65 1157.71 1842.39C1157.71 1842.39 1074.77 1832.94 1063.11 1781.89C1053.51 1739.59 1065.45 1716.89 1065.45 1716.89Z" fill="#70E0A3"/>
<path d="M1234.31 1714.09C1234.31 1714.09 1263.33 1752.13 1250.93 1789.28C1238.53 1826.43 1187.29 1832.63 1176.69 1858.65C1176.69 1858.65 1143.1 1777.59 1179.36 1742.76C1209.56 1713.87 1234.31 1714.09 1234.31 1714.09Z" fill="#70E0A3"/>
</mask>
<g mask="url(#mask0)">
<rect width="1891.07" height="2102.74" transform="matrix(0.862801 0.505544 -0.457716 0.889099 262.117 20.8716)" fill="url(#paint0_linear)" fill-opacity="0.4"/>
</g>
<defs>
<linearGradient id="paint0_linear" x1="847.71" y1="240.145" x2="1171.3" y2="1726.01" gradientUnits="userSpaceOnUse">
<stop stop-color="#70E0A3" stop-opacity="0"/>
<stop offset="0.4375" stop-color="#70E0A3"/>
<stop offset="0.677083" stop-color="#70E0A3" stop-opacity="0"/>
</linearGradient>
</defs>
</svg>
