<svg width="419" height="743" viewBox="0 0 419 743" fill="none" xmlns="http://www.w3.org/2000/svg">
<path d="M176.517 12.1606C224.986 40.8462 316.434 128.486 294.474 249.559C267.025 400.9 226.193 402.384 282.234 480.28C322.425 536.146 370.145 617.897 350.486 734.371M305.602 4C306.592 85.853 288.243 249.559 206.934 249.559C105.298 249.559 116.797 327.084 139.424 348.598C156.756 365.078 192.838 367.145 195.806 348.598C198.773 330.052 161.309 298.893 103.814 323.746C57.818 343.628 57.0761 419.818 71.5425 453.202" stroke="#70E0A3" stroke-width="7" stroke-linecap="round" stroke-linejoin="round"/>
<circle cx="289.281" cy="272.186" r="4.28963" fill="#439A6B" stroke="#70E0A3" stroke-width="7"/>
<circle cx="295.958" cy="501.424" r="4.28963" fill="#439A6B" stroke="#70E0A3" stroke-width="7"/>
<circle cx="354.566" cy="682.44" r="4.28963" fill="#E8FAFE" stroke="#70E0A3" stroke-width="7"/>
<circle cx="245.848" cy="72.9213" r="8.38298" fill="#F3FDB7" stroke="#70E0A3" stroke-width="7"/>
<circle cx="306.451" cy="31.331" r="8.38298" fill="#F3FDB7" stroke="#70E0A3" stroke-width="7"/>
<circle cx="289.815" cy="272.555" r="8.38298" fill="#F3FDB7" stroke="#70E0A3" stroke-width="7"/>
<circle cx="295.756" cy="501.897" r="8.38298" fill="#F3FDB7" stroke="#70E0A3" stroke-width="7"/>
<circle cx="355.171" cy="682.518" r="8.38298" fill="#F9F9F9" stroke="#70E0A3" stroke-width="7"/>
<circle cx="226.835" cy="245.225" r="8.38298" fill="#F3FDB7" stroke="#70E0A3" stroke-width="7"/>
<circle cx="193.563" cy="355.736" r="8.38298" fill="#F3FDB7" stroke="#70E0A3" stroke-width="7"/>
<circle cx="65.2267" cy="411.586" r="8.38298" fill="#F3FDB7" stroke="#70E0A3" stroke-width="7"/>
<path d="M258.11 581.304C297.138 572.172 300.719 544.922 297.121 529.8C296.716 528.099 295.085 527.001 293.328 527.102C246.932 529.761 247.046 561.031 253.791 579.073C254.438 580.802 256.296 581.728 258.11 581.304Z" fill="#E0F36D"/>
<path d="M279.009 521.395L279.009 521.395C277.741 523.383 276.433 525.353 275.128 527.321C273.171 530.27 271.216 533.216 269.399 536.21C266.388 541.172 263.848 546.124 262.491 551.108L279.009 521.395ZM279.009 521.395L279.017 521.383M279.009 521.395L279.017 521.383M279.017 521.383C279.085 521.273 279.201 521.142 279.381 521.009C279.56 520.877 279.785 520.757 280.046 520.662C280.307 520.568 280.589 520.505 280.873 520.478C281.157 520.451 281.429 520.462 281.67 520.505C281.913 520.548 282.106 520.619 282.247 520.699L282.73 519.838M279.017 521.383L282.73 519.838M282.73 519.838L282.247 520.699C282.387 520.778 282.458 520.855 282.49 520.904C282.519 520.948 282.526 520.981 282.525 521.012C282.524 521.048 282.512 521.121 282.448 521.226C281.205 523.172 279.874 525.165 278.528 527.179C276.667 529.964 274.779 532.791 273.059 535.592C270.066 540.464 267.452 545.455 266.079 550.512M282.73 519.838L266.079 550.512M266.079 550.512C266.016 550.742 265.81 551.005 265.362 551.23C264.918 551.453 264.342 551.581 263.781 551.586C263.2 551.592 262.778 551.466 262.574 551.331C262.529 551.301 262.504 551.277 262.491 551.262C262.484 551.255 262.48 551.249 262.479 551.246C262.477 551.243 262.476 551.242 262.476 551.241C262.476 551.241 262.475 551.24 262.475 551.238C262.475 551.236 262.474 551.232 262.473 551.223C262.473 551.207 262.474 551.17 262.491 551.108L266.079 550.512Z" fill="#70E0A3" stroke="#70E0A3" stroke-width="2"/>
<path d="M283.527 520.808C283.536 520.812 283.542 520.816 283.546 520.819C286.348 527.402 287.961 536.941 284.718 546.484C281.519 555.9 273.401 565.882 255.666 573.155C255.585 573.188 255.513 573.185 255.46 573.168C255.435 573.16 255.419 573.15 255.411 573.143C255.404 573.138 255.397 573.131 255.389 573.116C250.764 565.15 247.454 554.272 250.191 544.518C252.825 535.132 261.433 525.585 283.316 520.789C283.403 520.77 283.48 520.785 283.527 520.808Z" stroke="#70E0A3" stroke-width="7"/>
<path d="M190.291 133.79C225.223 135.946 235.367 114.204 236.36 100.46C236.486 98.7157 235.251 97.1923 233.539 96.7825C194.017 87.3244 185.905 113.372 186.829 130.399C186.929 132.243 188.431 133.675 190.291 133.79Z" fill="#E0F36D"/>
<path d="M223.253 88.397L223.253 88.3969C221.658 89.7595 220.037 91.0949 218.419 92.4283C215.997 94.4245 213.58 96.4162 211.264 98.4875C207.426 101.919 203.998 105.458 201.564 109.326L223.253 88.397ZM223.253 88.397L223.263 88.3878M223.253 88.397L223.263 88.3878M223.263 88.3878C223.337 88.323 223.457 88.2481 223.633 88.186C223.808 88.1243 224.02 88.0819 224.257 88.0697C224.493 88.0575 224.738 88.076 224.977 88.1249C225.217 88.1739 225.435 88.2504 225.619 88.3441C225.804 88.4383 225.938 88.5414 226.027 88.6346C226.116 88.7275 226.145 88.7957 226.154 88.8256L227.112 88.5551M223.263 88.3878L227.112 88.5551M227.112 88.5551L226.154 88.8256C226.158 88.84 226.158 88.8476 226.158 88.8497C226.158 88.8517 226.158 88.8544 226.156 88.8596C226.153 88.8686 226.137 88.9105 226.068 88.9719C224.514 90.2987 222.87 91.6451 221.206 93.007C218.904 94.8921 216.565 96.8069 214.38 98.7401C210.576 102.105 207.057 105.674 204.575 109.626M227.112 88.5551L204.575 109.626M204.575 109.626C204.484 109.769 204.275 109.928 203.855 110C203.44 110.071 202.935 110.032 202.471 109.896C201.988 109.754 201.686 109.548 201.568 109.404C201.555 109.389 201.547 109.377 201.541 109.367C201.546 109.357 201.553 109.344 201.564 109.326L204.575 109.626ZM201.53 109.347C201.53 109.347 201.531 109.348 201.531 109.349C201.531 109.348 201.53 109.347 201.53 109.347ZM201.534 109.386C201.533 109.388 201.533 109.389 201.533 109.389C201.533 109.389 201.533 109.388 201.534 109.386Z" fill="#70E0A3" stroke="#70E0A3" stroke-width="2"/>
<path d="M226.82 89.3462C227.423 95.5905 226.271 103.889 221.145 110.957C216.09 117.927 206.829 124.169 190.268 125.793C190.191 125.8 190.133 125.779 190.096 125.753C190.078 125.741 190.069 125.73 190.065 125.724C190.062 125.72 190.059 125.714 190.055 125.699C188.268 117.798 188.366 107.956 193.124 100.606C197.682 93.5636 207.212 87.7913 226.646 89.2784L226.913 85.7886L226.646 89.2784C226.731 89.2848 226.791 89.3195 226.82 89.346C226.82 89.3461 226.82 89.3462 226.82 89.3462Z" stroke="#70E0A3" stroke-width="7"/>
<path d="M11.691 466.027C44.0174 467.936 53.5278 447.881 54.5329 435.052C54.6696 433.308 53.4384 431.786 51.7252 431.381C15.1056 422.704 7.45686 446.745 8.24115 462.636C8.33219 464.481 9.83069 465.917 11.691 466.027Z" fill="#E0F36D"/>
<path d="M42.3391 423.637L42.339 423.637C40.8465 424.912 39.3312 426.161 37.8187 427.408C35.5556 429.272 33.2989 431.132 31.1344 433.068C27.5496 436.273 24.3506 439.576 22.0807 443.183C22.1811 443.303 22.4487 443.489 22.8899 443.619C23.3155 443.744 23.7776 443.779 24.1539 443.714C24.5359 443.649 24.7119 443.507 24.7832 443.394L42.3391 423.637ZM42.3391 423.637L42.3496 423.628M42.3391 423.637L42.3496 423.628M42.3496 423.628C42.4113 423.574 42.5161 423.508 42.6745 423.452C42.8316 423.396 43.0232 423.358 43.2388 423.347C43.4538 423.336 43.6781 423.352 43.8961 423.397C44.1144 423.442 44.3124 423.511 44.4789 423.596C44.6463 423.681 44.7657 423.773 44.8426 423.854C44.9183 423.934 44.9401 423.988 44.9451 424.005C44.9391 424.016 44.923 424.041 44.8848 424.075M42.3496 423.628L44.8848 424.075M44.8848 424.075C43.4348 425.313 41.8987 426.571 40.3443 427.843C38.1909 429.607 36.0025 431.398 33.9599 433.205C30.4033 436.352 27.1081 439.692 24.7834 443.394L44.8848 424.075ZM22.0536 443.145C22.0536 443.145 22.0538 443.145 22.0542 443.146L22.0536 443.145Z" fill="#70E0A3" stroke="#70E0A3" stroke-width="2"/>
<path d="M45.269 424.625C45.3425 424.631 45.3936 424.657 45.4199 424.678C45.9413 430.471 44.8356 438.102 40.101 444.595C35.4324 450.998 26.8993 456.756 11.637 458.293C11.5657 458.3 11.5139 458.281 11.4822 458.258C11.4668 458.248 11.4595 458.238 11.4567 458.234L11.4566 458.234C11.455 458.232 11.4519 458.227 11.4489 458.213C9.82343 450.864 9.96808 441.811 14.3629 435.068C18.5613 428.627 27.3276 423.293 45.269 424.625Z" stroke="#70E0A3" stroke-width="7"/>
<path d="M149.536 213.459C166.315 245.282 190.819 242.494 203.358 236.002C204.911 235.198 205.569 233.349 205.028 231.674C192.206 191.931 165.016 198.814 150.627 208.734C149.106 209.782 148.667 211.811 149.536 213.459Z" fill="#E0F36D"/>
<path d="M206.86 218.114L206.86 218.114C204.819 217.446 202.787 216.742 200.757 216.038C197.719 214.984 194.687 213.933 191.64 213.012C186.591 211.486 181.664 210.376 176.981 210.31L206.86 218.114ZM206.86 218.114L206.873 218.118M206.86 218.114L206.873 218.118M206.873 218.118C206.973 218.149 207.105 218.216 207.255 218.338L207.884 217.554M206.873 218.118L207.884 217.554M207.884 217.554L207.255 218.338C207.405 218.46 207.556 218.624 207.694 218.826C207.832 219.028 207.948 219.255 208.033 219.492C208.119 219.729 208.168 219.962 208.185 220.176C208.202 220.39 208.183 220.566 208.148 220.696C208.113 220.826 208.068 220.892 208.043 220.919C208.023 220.941 208.012 220.944 208.002 220.947C207.988 220.95 207.938 220.958 207.844 220.929C205.854 220.278 203.798 219.558 201.72 218.829C198.844 217.822 195.923 216.799 193.067 215.919C188.096 214.388 183.099 213.214 178.323 213.152M207.884 217.554L178.323 213.152M178.323 213.152C178.14 213.149 177.884 213.046 177.594 212.714C177.308 212.386 177.071 211.92 176.942 211.439C176.808 210.938 176.826 210.559 176.891 210.372C176.901 210.344 176.91 210.325 176.916 210.314C176.929 210.312 176.949 210.31 176.98 210.31L178.323 213.152ZM176.925 210.301C176.925 210.301 176.924 210.302 176.923 210.303C176.924 210.301 176.925 210.301 176.925 210.301ZM176.903 210.317C176.901 210.319 176.899 210.319 176.899 210.319C176.899 210.319 176.9 210.318 176.903 210.317Z" fill="#70E0A3" stroke="#70E0A3" stroke-width="2"/>
<path d="M208.031 221.79C202.886 225.67 194.981 229.124 186.018 228.416C177.179 227.718 166.732 222.925 156.442 209.235C156.394 209.171 156.381 209.108 156.384 209.061C156.386 209.038 156.39 209.024 156.394 209.017C156.396 209.012 156.4 209.005 156.411 208.994C162.369 203.195 171.063 197.985 180.081 198.216C188.728 198.437 198.907 203.726 207.999 221.597L211.118 220.01L207.999 221.597C208.038 221.673 208.04 221.744 208.032 221.786C208.031 221.787 208.031 221.789 208.031 221.79Z" stroke="#70E0A3" stroke-width="7"/>
<path d="M347.42 328.315C311.913 334.48 299.134 313.335 296.613 299.42C296.302 297.699 297.364 296.048 299.021 295.453C338.389 281.305 349.563 307.085 350.496 324.566C350.595 326.41 349.256 327.996 347.42 328.315Z" fill="#E0F36D"/>
<path d="M308.659 285.703L308.659 285.702C310.437 286.913 312.239 288.093 314.038 289.272C316.732 291.037 319.421 292.799 322.016 294.652C326.314 297.722 330.209 300.95 333.126 304.625L308.659 285.703ZM308.659 285.703L308.647 285.695M308.659 285.703L308.647 285.695M308.647 285.695C308.562 285.634 308.428 285.57 308.238 285.526L308.475 284.549M308.647 285.695L308.475 284.549M308.475 284.549L308.238 285.526C308.05 285.482 307.827 285.463 307.583 285.477C307.338 285.491 307.087 285.538 306.847 285.615C306.607 285.692 306.391 285.796 306.211 285.913C306.031 286.031 305.903 286.154 305.821 286.261C305.739 286.369 305.714 286.445 305.708 286.482C305.703 286.511 305.707 286.523 305.711 286.532C305.717 286.545 305.742 286.59 305.822 286.647C307.557 287.827 309.385 289.016 311.234 290.219C313.792 291.884 316.39 293.574 318.835 295.301C323.09 298.306 327.077 301.551 330.048 305.3M308.475 284.549L330.048 305.3M330.048 305.3C330.162 305.444 330.402 305.584 330.843 305.611C331.278 305.637 331.793 305.54 332.254 305.348C332.733 305.148 333.023 304.901 333.132 304.736C333.149 304.71 333.158 304.691 333.163 304.679C333.157 304.668 333.145 304.65 333.126 304.625L330.048 305.3ZM333.167 304.664C333.167 304.664 333.167 304.665 333.167 304.666C333.167 304.665 333.167 304.664 333.167 304.664ZM333.168 304.691C333.168 304.694 333.169 304.695 333.169 304.695C333.169 304.695 333.169 304.694 333.168 304.691Z" fill="#70E0A3" stroke="#70E0A3" stroke-width="2"/>
<path d="M305.024 287.016C305.023 287.018 305.021 287.019 305.02 287.02C305.09 293.474 307.186 301.86 313.232 308.537C319.195 315.122 329.39 320.476 346.546 320.261C346.626 320.26 346.684 320.231 346.72 320.2C346.737 320.185 346.745 320.172 346.749 320.166C346.751 320.161 346.755 320.154 346.756 320.138L349.584 320.464L346.756 320.138C347.711 311.864 346.526 301.779 340.825 294.766C335.357 288.041 324.932 283.202 305.194 286.927C305.11 286.943 305.052 286.984 305.024 287.016Z" stroke="#70E0A3" stroke-width="7"/>
<path d="M367.245 82.9542C334.203 93.4321 318.597 74.367 313.947 61.0079C313.359 59.3195 314.172 57.4833 315.752 56.6469C351.246 37.8498 366.061 61.6285 369.76 78.6988C370.162 80.5541 369.054 82.3807 367.245 82.9542Z" fill="#E0F36D"/>
<path d="M323.314 45.8815L323.314 45.8816L323.301 45.8751C323.211 45.8278 323.075 45.7832 322.892 45.7644C322.709 45.7457 322.497 45.7545 322.269 45.7987C322.041 45.8427 321.813 45.9191 321.599 46.0234C321.385 46.1279 321.198 46.2541 321.048 46.3892C320.897 46.5249 320.796 46.6578 320.736 46.7713C320.676 46.8843 320.663 46.9629 320.663 47.0034C320.662 47.0385 320.67 47.0563 320.679 47.0714C320.691 47.0894 320.724 47.1309 320.809 47.1762C322.665 48.1163 324.614 49.0539 326.584 50.0022C329.311 51.3147 332.081 52.6476 334.709 54.036C339.282 56.4526 343.634 59.1383 347.086 62.4506C347.221 62.5795 347.467 62.6818 347.881 62.6528C348.294 62.6239 348.764 62.4665 349.17 62.2226C349.591 61.9693 349.824 61.6962 349.9 61.5257C349.915 61.49 349.92 61.4679 349.922 61.457C349.916 61.4457 349.9 61.4239 349.867 61.3917C346.475 58.1438 342.214 55.4627 337.59 52.9883C334.799 51.4946 331.932 50.1038 329.059 48.7099C327.139 47.779 325.218 46.8467 323.314 45.8815ZM349.923 61.4489C349.923 61.4489 349.922 61.4497 349.923 61.4511C349.923 61.4496 349.923 61.4489 349.923 61.4489ZM349.924 61.4617C349.925 61.4645 349.926 61.4659 349.926 61.4659C349.926 61.4659 349.926 61.4645 349.924 61.4617Z" fill="#70E0A3" stroke="#70E0A3" stroke-width="2"/>
<path d="M320.156 47.601C320.155 47.6024 320.155 47.6037 320.154 47.605C321.256 53.9631 324.614 61.955 331.497 67.7628C338.281 73.4865 348.884 77.4265 365.214 75.0814C365.29 75.0705 365.339 75.0366 365.367 75.003C365.381 74.9866 365.387 74.9733 365.39 74.9656C365.392 74.9601 365.394 74.9514 365.393 74.9329C364.985 66.6695 362.235 56.8945 355.615 50.7096C349.271 44.7825 338.534 41.4017 320.305 47.4942C320.225 47.5207 320.177 47.5681 320.156 47.601Z" stroke="#70E0A3" stroke-width="7"/>
<path d="M199.537 429.309C224.16 405.547 214.878 382.724 205.408 372.196C204.203 370.856 202.186 370.682 200.688 371.674C167.657 393.557 181.406 417.967 194.562 429.464C196.006 430.726 198.163 430.634 199.537 429.309Z" fill="#E0F36D"/>
<path d="M191.754 377.62L191.754 377.62L191.755 377.613C191.784 377.417 191.86 377.202 191.99 376.983L191.559 376.729L191.99 376.983C192.119 376.765 192.295 376.552 192.511 376.359C192.727 376.167 192.976 376.002 193.241 375.875C193.506 375.748 193.78 375.664 194.044 375.624C194.308 375.584 194.552 375.591 194.764 375.636C194.974 375.681 195.144 375.762 195.271 375.864C195.397 375.964 195.485 376.089 195.538 376.231C195.59 376.374 195.609 376.545 195.581 376.74C195.213 379.012 194.788 381.339 194.359 383.684C193.769 386.912 193.173 390.176 192.709 393.389C191.904 398.963 191.479 404.491 192.143 409.68C192.198 410.116 192.033 410.551 191.688 410.949C191.341 411.349 190.836 411.68 190.304 411.875C189.765 412.074 189.261 412.112 188.91 412.009C188.741 411.96 188.616 411.882 188.529 411.782C188.442 411.684 188.369 411.539 188.341 411.317C187.672 406.056 188.062 400.478 188.854 394.782C189.332 391.35 189.95 387.905 190.567 384.466C190.977 382.179 191.386 379.896 191.754 377.62Z" fill="#70E0A3" stroke="#70E0A3"/>
<path d="M195.662 376.121C199.985 380.932 204.219 388.52 204.603 397.509C204.981 406.367 201.643 417.086 189.941 428.378C189.887 428.431 189.831 428.448 189.788 428.449C189.767 428.45 189.753 428.447 189.745 428.444C189.739 428.442 189.731 428.438 189.716 428.425C183.482 422.977 177.481 414.761 176.644 405.74C175.842 397.095 179.705 386.624 195.485 376.171L193.536 373.259L195.485 376.171C195.554 376.125 195.62 376.117 195.657 376.12C195.659 376.121 195.66 376.121 195.662 376.121Z" stroke="#70E0A3" stroke-width="7"/>
<path d="M402.059 731.481C373.551 729.22 366.258 708.044 366.066 694.914C366.038 693.024 367.477 691.451 369.319 691.226C402.071 687.224 407.569 712.087 406.012 728.127C405.815 730.156 404.038 731.638 402.059 731.481Z" fill="#E0F36D"/>
<path d="M377.797 690.142L377.797 690.142C379.345 691.539 380.928 692.919 382.512 694.301C388.847 699.824 395.199 705.364 399.383 712.006C399.587 712.329 399.562 712.596 399.424 712.836C399.268 713.106 398.941 713.372 398.501 713.55C398.066 713.725 397.575 713.792 397.145 713.721C396.722 713.651 396.379 713.454 396.166 713.115L377.797 690.142ZM377.797 690.142L377.792 690.138M377.797 690.142L377.792 690.138M377.792 690.138C377.665 690.02 377.499 689.918 377.301 689.844C377.102 689.77 376.878 689.728 376.641 689.722C376.404 689.716 376.162 689.747 375.931 689.814C375.7 689.881 375.487 689.982 375.305 690.107C375.123 690.232 374.978 690.377 374.874 690.531L374.461 690.25L374.874 690.531C374.771 690.683 374.711 690.839 374.689 690.987L374.194 690.913M377.792 690.138L374.194 690.913M374.194 690.913L374.689 690.987C374.667 691.135 374.682 691.278 374.731 691.413C374.781 691.547 374.867 691.678 374.993 691.795C376.535 693.185 378.145 694.58 379.769 695.987C382.005 697.924 384.267 699.883 386.413 701.884C390.139 705.358 393.597 709.029 396.166 713.115L374.194 690.913Z" fill="#70E0A3" stroke="#70E0A3"/>
<path d="M374.984 691.595C375.075 697.593 376.799 705.386 381.668 711.88C386.462 718.275 394.512 723.699 407.875 724.759C407.912 724.762 407.937 724.757 407.955 724.752C407.974 724.745 407.99 724.735 408.002 724.725C408.014 724.715 408.019 724.707 408.021 724.704L408.021 724.704C408.022 724.703 408.025 724.697 408.027 724.677C408.763 717.099 407.77 707.831 403.136 701.047C398.706 694.562 390.479 689.669 375.097 691.549C375.036 691.556 375 691.579 374.984 691.595Z" stroke="#70E0A3" stroke-width="7"/>
</svg>
